<mxfile host="app.diagrams.net" agent="Mozilla/5.0 (Windows NT 10.0; Win64; x64; rv:142.0) Gecko/20100101 Firefox/142.0" version="28.1.1">
  <diagram name="Page-1" id="Fh3xXZeNDoPXvtaeBFH2">
    <mxGraphModel dx="1426" dy="751" grid="1" gridSize="10" guides="1" tooltips="1" connect="1" arrows="1" fold="1" page="1" pageScale="1" pageWidth="1169" pageHeight="827" math="0" shadow="0">
      <root>
        <mxCell id="0" />
        <mxCell id="1" parent="0" />
        <mxCell id="3psXlnNpl7eC7Tku3Xl5-1" style="edgeStyle=orthogonalEdgeStyle;rounded=1;orthogonalLoop=1;jettySize=auto;html=1;exitX=0;exitY=0.25;exitDx=0;exitDy=0;entryX=1;entryY=0.5;entryDx=0;entryDy=0;strokeWidth=2;curved=0;strokeColor=#FFAB2E;startArrow=classic;startFill=1;endArrow=none;endFill=0;" parent="1" source="3psXlnNpl7eC7Tku3Xl5-17" target="3psXlnNpl7eC7Tku3Xl5-14" edge="1">
          <mxGeometry relative="1" as="geometry" />
        </mxCell>
        <mxCell id="3psXlnNpl7eC7Tku3Xl5-2" value="RCC (HSE)" style="edgeLabel;html=1;align=center;verticalAlign=middle;resizable=0;points=[];fontSize=12;fontFamily=JetBrains Mono;fontSource=https%3A%2F%2Ffonts.googleapis.com%2Fcss%3Ffamily%3DJetBrains%2BMono;labelBackgroundColor=#FFAB2E;labelBorderColor=#FFAB2E;textShadow=0;" parent="3psXlnNpl7eC7Tku3Xl5-1" vertex="1" connectable="0">
          <mxGeometry x="-0.008" y="-1" relative="1" as="geometry">
            <mxPoint x="-1" y="-1" as="offset" />
          </mxGeometry>
        </mxCell>
        <mxCell id="3psXlnNpl7eC7Tku3Xl5-3" style="edgeStyle=orthogonalEdgeStyle;rounded=1;orthogonalLoop=1;jettySize=auto;html=1;exitX=0;exitY=0.5;exitDx=0;exitDy=0;strokeWidth=2;startArrow=classic;startFill=1;fontFamily=JetBrains Mono;fontSource=https%3A%2F%2Ffonts.googleapis.com%2Fcss%3Ffamily%3DJetBrains%2BMono;strokeColor=#FFAB2E;fillColor=#ffcc99;fontSize=12;curved=0;entryX=1;entryY=0.5;entryDx=0;entryDy=0;" parent="1" source="3psXlnNpl7eC7Tku3Xl5-5" target="3psXlnNpl7eC7Tku3Xl5-17" edge="1">
          <mxGeometry relative="1" as="geometry">
            <mxPoint x="690" y="450" as="targetPoint" />
          </mxGeometry>
        </mxCell>
        <mxCell id="3psXlnNpl7eC7Tku3Xl5-4" value="CAN1" style="edgeLabel;html=1;align=center;verticalAlign=middle;resizable=0;points=[];fontFamily=JetBrains Mono;fontSource=https%3A%2F%2Ffonts.googleapis.com%2Fcss%3Ffamily%3DJetBrains%2BMono;fontSize=12;labelBackgroundColor=#FFAB2E;labelBorderColor=#FFAB2E;" parent="3psXlnNpl7eC7Tku3Xl5-3" vertex="1" connectable="0">
          <mxGeometry x="-0.0333" relative="1" as="geometry">
            <mxPoint x="-3" as="offset" />
          </mxGeometry>
        </mxCell>
        <mxCell id="3psXlnNpl7eC7Tku3Xl5-5" value="TJA1057BTK CAN Bus Transceiver" style="rounded=0;whiteSpace=wrap;html=1;fontSize=12;fontFamily=JetBrains Mono;fontSource=https%3A%2F%2Ffonts.googleapis.com%2Fcss%3Ffamily%3DJetBrains%2BMono;fillColor=#ffcc99;strokeColor=#36393d;" parent="1" vertex="1">
          <mxGeometry x="880" y="410" width="120" height="60" as="geometry" />
        </mxCell>
        <mxCell id="3psXlnNpl7eC7Tku3Xl5-6" style="edgeStyle=orthogonalEdgeStyle;rounded=1;orthogonalLoop=1;jettySize=auto;html=1;exitX=0;exitY=0.5;exitDx=0;exitDy=0;entryX=1;entryY=0.25;entryDx=0;entryDy=0;startArrow=classic;startFill=1;strokeWidth=2;strokeColor=#FFAB2E;fillColor=#ffcc99;fontSize=12;fontFamily=JetBrains Mono;fontSource=https%3A%2F%2Ffonts.googleapis.com%2Fcss%3Ffamily%3DJetBrains%2BMono;curved=0;" parent="1" source="3psXlnNpl7eC7Tku3Xl5-8" target="3psXlnNpl7eC7Tku3Xl5-17" edge="1">
          <mxGeometry relative="1" as="geometry" />
        </mxCell>
        <mxCell id="3psXlnNpl7eC7Tku3Xl5-7" value="SWD&lt;br style=&quot;font-size: 12px;&quot;&gt;SWO" style="edgeLabel;html=1;align=center;verticalAlign=middle;resizable=0;points=[];fontSize=12;fontFamily=JetBrains Mono;fontSource=https%3A%2F%2Ffonts.googleapis.com%2Fcss%3Ffamily%3DJetBrains%2BMono;labelBackgroundColor=#FFAB2E;labelBorderColor=#FFAB2E;" parent="3psXlnNpl7eC7Tku3Xl5-6" vertex="1" connectable="0">
          <mxGeometry x="0.08" y="-2" relative="1" as="geometry">
            <mxPoint x="2" y="-12" as="offset" />
          </mxGeometry>
        </mxCell>
        <mxCell id="3psXlnNpl7eC7Tku3Xl5-8" value="TC2050 Programming Contact Pads" style="rounded=0;whiteSpace=wrap;html=1;fontSize=12;fontFamily=JetBrains Mono;fontSource=https%3A%2F%2Ffonts.googleapis.com%2Fcss%3Ffamily%3DJetBrains%2BMono;fillColor=#cdeb8b;strokeColor=#36393d;" parent="1" vertex="1">
          <mxGeometry x="880" y="300" width="120" height="60" as="geometry" />
        </mxCell>
        <mxCell id="3psXlnNpl7eC7Tku3Xl5-9" value="MCU" style="rounded=0;whiteSpace=wrap;html=1;fontSize=12;fontFamily=JetBrains Mono;fontSource=https%3A%2F%2Ffonts.googleapis.com%2Fcss%3Ffamily%3DJetBrains%2BMono;fillColor=#cce5ff;strokeColor=#36393d;" parent="1" vertex="1">
          <mxGeometry x="10" y="50" width="120" height="30" as="geometry" />
        </mxCell>
        <mxCell id="3psXlnNpl7eC7Tku3Xl5-10" value="Sensor" style="rounded=0;whiteSpace=wrap;html=1;fontSize=12;fontFamily=JetBrains Mono;fontSource=https%3A%2F%2Ffonts.googleapis.com%2Fcss%3Ffamily%3DJetBrains%2BMono;fillColor=#eeeeee;strokeColor=#36393d;" parent="1" vertex="1">
          <mxGeometry x="10" y="130" width="120" height="30" as="geometry" />
        </mxCell>
        <mxCell id="3psXlnNpl7eC7Tku3Xl5-11" value="Direct control" style="rounded=0;whiteSpace=wrap;html=1;fontSize=12;fontFamily=JetBrains Mono;fontSource=https%3A%2F%2Ffonts.googleapis.com%2Fcss%3Ffamily%3DJetBrains%2BMono;fillColor=#ffff88;strokeColor=#36393d;" parent="1" vertex="1">
          <mxGeometry x="150" y="10" width="120" height="30" as="geometry" />
        </mxCell>
        <mxCell id="3psXlnNpl7eC7Tku3Xl5-12" value="External Comm" style="rounded=0;whiteSpace=wrap;html=1;fontSize=12;fontFamily=JetBrains Mono;fontSource=https%3A%2F%2Ffonts.googleapis.com%2Fcss%3Ffamily%3DJetBrains%2BMono;fillColor=#ffcccc;strokeColor=#36393d;" parent="1" vertex="1">
          <mxGeometry x="150" y="50" width="120" height="30" as="geometry" />
        </mxCell>
        <mxCell id="3psXlnNpl7eC7Tku3Xl5-13" value="Internal Comm " style="rounded=0;whiteSpace=wrap;html=1;fontSize=12;fontFamily=JetBrains Mono;fontSource=https%3A%2F%2Ffonts.googleapis.com%2Fcss%3Ffamily%3DJetBrains%2BMono;fillColor=#ffcc99;strokeColor=#36393d;" parent="1" vertex="1">
          <mxGeometry x="150" y="90" width="120" height="30" as="geometry" />
        </mxCell>
        <mxCell id="3psXlnNpl7eC7Tku3Xl5-14" value="RCC HSE Crystal" style="rounded=0;whiteSpace=wrap;html=1;fontSize=12;fontFamily=JetBrains Mono;fontSource=https%3A%2F%2Ffonts.googleapis.com%2Fcss%3Ffamily%3DJetBrains%2BMono;" parent="1" vertex="1">
          <mxGeometry x="240" y="370" width="120" height="60" as="geometry" />
        </mxCell>
        <mxCell id="3psXlnNpl7eC7Tku3Xl5-15" value="Electronic Comp" style="rounded=0;whiteSpace=wrap;html=1;fontSize=12;fontFamily=JetBrains Mono;fontSource=https%3A%2F%2Ffonts.googleapis.com%2Fcss%3Ffamily%3DJetBrains%2BMono;" parent="1" vertex="1">
          <mxGeometry x="10" y="10" width="120" height="30" as="geometry" />
        </mxCell>
        <mxCell id="3psXlnNpl7eC7Tku3Xl5-16" value="Dev" style="rounded=0;whiteSpace=wrap;html=1;fontSize=12;fontFamily=JetBrains Mono;fontSource=https%3A%2F%2Ffonts.googleapis.com%2Fcss%3Ffamily%3DJetBrains%2BMono;fillColor=#cdeb8b;strokeColor=#36393d;" parent="1" vertex="1">
          <mxGeometry x="10" y="90" width="120" height="30" as="geometry" />
        </mxCell>
        <mxCell id="3psXlnNpl7eC7Tku3Xl5-17" value="STM32L432KC&lt;br style=&quot;font-size: 12px;&quot;&gt;MCU" style="rounded=0;whiteSpace=wrap;html=1;fontFamily=JetBrains Mono;fillColor=#cce5ff;strokeColor=#36393d;fontSize=12;fontSource=https%3A%2F%2Ffonts.googleapis.com%2Fcss%3Ffamily%3DJetBrains%2BMono;" parent="1" vertex="1">
          <mxGeometry x="520" y="360" width="160" height="160" as="geometry" />
        </mxCell>
        <mxCell id="3psXlnNpl7eC7Tku3Xl5-18" value="Non-volatile" style="rounded=0;whiteSpace=wrap;html=1;fontSize=12;fontFamily=JetBrains Mono;fontSource=https%3A%2F%2Ffonts.googleapis.com%2Fcss%3Ffamily%3DJetBrains%2BMono;fillColor=#f9f7ed;strokeColor=#36393d;" parent="1" vertex="1">
          <mxGeometry x="150" y="130" width="120" height="30" as="geometry" />
        </mxCell>
        <mxCell id="3psXlnNpl7eC7Tku3Xl5-19" style="edgeStyle=orthogonalEdgeStyle;rounded=1;orthogonalLoop=1;jettySize=auto;html=1;entryX=0;entryY=0.5;entryDx=0;entryDy=0;startArrow=classic;startFill=1;strokeWidth=2;fontSize=12;fontFamily=JetBrains Mono;fontSource=https%3A%2F%2Ffonts.googleapis.com%2Fcss%3Ffamily%3DJetBrains%2BMono;strokeColor=#FFAB2E;fillColor=#ffcc99;curved=0;exitX=1;exitY=0.75;exitDx=0;exitDy=0;" parent="1" source="3psXlnNpl7eC7Tku3Xl5-17" target="3psXlnNpl7eC7Tku3Xl5-21" edge="1">
          <mxGeometry relative="1" as="geometry">
            <mxPoint x="600" y="550" as="sourcePoint" />
          </mxGeometry>
        </mxCell>
        <mxCell id="3psXlnNpl7eC7Tku3Xl5-20" value="USART1" style="edgeLabel;html=1;align=center;verticalAlign=middle;resizable=0;points=[];fontSize=12;fontFamily=JetBrains Mono;fontSource=https%3A%2F%2Ffonts.googleapis.com%2Fcss%3Ffamily%3DJetBrains%2BMono;labelBackgroundColor=#FFAB2E;labelBorderColor=#FFAB2E;" parent="3psXlnNpl7eC7Tku3Xl5-19" vertex="1" connectable="0">
          <mxGeometry x="0.025" y="-3" relative="1" as="geometry">
            <mxPoint x="3" y="2" as="offset" />
          </mxGeometry>
        </mxCell>
        <mxCell id="3psXlnNpl7eC7Tku3Xl5-21" value="&lt;div&gt;CP2102N&amp;nbsp;&lt;/div&gt;&lt;div&gt;USB-to-UART Interface&lt;/div&gt;" style="rounded=0;whiteSpace=wrap;html=1;fontSize=12;fontFamily=JetBrains Mono;fontSource=https%3A%2F%2Ffonts.googleapis.com%2Fcss%3Ffamily%3DJetBrains%2BMono;fillColor=#cdeb8b;strokeColor=#36393d;" parent="1" vertex="1">
          <mxGeometry x="880" y="520" width="120" height="60" as="geometry" />
        </mxCell>
        <mxCell id="3psXlnNpl7eC7Tku3Xl5-22" style="edgeStyle=orthogonalEdgeStyle;rounded=1;orthogonalLoop=1;jettySize=auto;html=1;entryX=0.5;entryY=0;entryDx=0;entryDy=0;startArrow=classic;startFill=1;strokeWidth=2;fontSize=12;fontFamily=JetBrains Mono;fontSource=https%3A%2F%2Ffonts.googleapis.com%2Fcss%3Ffamily%3DJetBrains%2BMono;strokeColor=#FFAB2E;fillColor=#ffcc99;curved=0;exitX=0.5;exitY=1;exitDx=0;exitDy=0;" parent="1" source="3psXlnNpl7eC7Tku3Xl5-17" target="3psXlnNpl7eC7Tku3Xl5-24" edge="1">
          <mxGeometry relative="1" as="geometry">
            <mxPoint x="440" y="684" as="sourcePoint" />
          </mxGeometry>
        </mxCell>
        <mxCell id="3psXlnNpl7eC7Tku3Xl5-23" value="SPI1, GPIO_EXTI0, &lt;br&gt;&lt;div&gt;GPIO_Output (x3),&lt;/div&gt;&lt;div&gt;TIM2_CH2&lt;/div&gt;" style="edgeLabel;html=1;align=center;verticalAlign=middle;resizable=0;points=[];fontSize=12;fontFamily=JetBrains Mono;fontSource=https%3A%2F%2Ffonts.googleapis.com%2Fcss%3Ffamily%3DJetBrains%2BMono;labelBackgroundColor=#FFAB2E;labelBorderColor=#FFAB2E;" parent="3psXlnNpl7eC7Tku3Xl5-22" vertex="1" connectable="0">
          <mxGeometry x="0.025" y="-3" relative="1" as="geometry">
            <mxPoint x="3" y="18" as="offset" />
          </mxGeometry>
        </mxCell>
        <mxCell id="3psXlnNpl7eC7Tku3Xl5-24" value="BNO086 9-DOF IMU" style="rounded=0;whiteSpace=wrap;html=1;fontSize=12;fontFamily=JetBrains Mono;fontSource=https%3A%2F%2Ffonts.googleapis.com%2Fcss%3Ffamily%3DJetBrains%2BMono;fillColor=#eeeeee;strokeColor=#36393d;" parent="1" vertex="1">
          <mxGeometry x="540" y="720" width="120" height="60" as="geometry" />
        </mxCell>
        <mxCell id="3psXlnNpl7eC7Tku3Xl5-25" style="edgeStyle=orthogonalEdgeStyle;rounded=1;orthogonalLoop=1;jettySize=auto;html=1;exitX=0;exitY=0.75;exitDx=0;exitDy=0;entryX=1;entryY=0.5;entryDx=0;entryDy=0;startArrow=classic;startFill=1;fontSize=12;fontFamily=JetBrains Mono;fontSource=https%3A%2F%2Ffonts.googleapis.com%2Fcss%3Ffamily%3DJetBrains%2BMono;strokeWidth=2;strokeColor=#FFAB2E;curved=0;" parent="1" source="3psXlnNpl7eC7Tku3Xl5-17" target="3psXlnNpl7eC7Tku3Xl5-27" edge="1">
          <mxGeometry relative="1" as="geometry">
            <mxPoint x="520" y="480" as="sourcePoint" />
          </mxGeometry>
        </mxCell>
        <mxCell id="3psXlnNpl7eC7Tku3Xl5-26" value="&lt;div&gt;USART2,&lt;/div&gt;&lt;div&gt;GPIO_Output&lt;/div&gt;" style="edgeLabel;html=1;align=center;verticalAlign=middle;resizable=0;points=[];fontSize=12;fontFamily=JetBrains Mono;fontSource=https%3A%2F%2Ffonts.googleapis.com%2Fcss%3Ffamily%3DJetBrains%2BMono;labelBackgroundColor=#FFAB2E;labelBorderColor=#FFAB2E;" parent="3psXlnNpl7eC7Tku3Xl5-25" vertex="1" connectable="0">
          <mxGeometry x="0.0286" relative="1" as="geometry">
            <mxPoint y="-2" as="offset" />
          </mxGeometry>
        </mxCell>
        <mxCell id="3psXlnNpl7eC7Tku3Xl5-27" value="SAM-M10Q GPS" style="rounded=0;whiteSpace=wrap;html=1;fontSize=12;fontFamily=JetBrains Mono;fontSource=https%3A%2F%2Ffonts.googleapis.com%2Fcss%3Ffamily%3DJetBrains%2BMono;fillColor=#eeeeee;strokeColor=#36393d;" parent="1" vertex="1">
          <mxGeometry x="240" y="450" width="120" height="60" as="geometry" />
        </mxCell>
        <mxCell id="3psXlnNpl7eC7Tku3Xl5-28" style="edgeStyle=orthogonalEdgeStyle;rounded=1;orthogonalLoop=1;jettySize=auto;html=1;exitX=0.5;exitY=1;exitDx=0;exitDy=0;entryX=0.25;entryY=0;entryDx=0;entryDy=0;startArrow=classic;startFill=1;strokeWidth=2;fontSize=12;fontFamily=JetBrains Mono;fontSource=https%3A%2F%2Ffonts.googleapis.com%2Fcss%3Ffamily%3DJetBrains%2BMono;strokeColor=#FFAB2E;fillColor=#ffcc99;curved=0;" parent="1" source="3psXlnNpl7eC7Tku3Xl5-30" target="3psXlnNpl7eC7Tku3Xl5-17" edge="1">
          <mxGeometry relative="1" as="geometry">
            <mxPoint x="600" y="360" as="targetPoint" />
          </mxGeometry>
        </mxCell>
        <mxCell id="3psXlnNpl7eC7Tku3Xl5-29" value="&lt;div&gt;I2C1,&lt;/div&gt;&lt;div&gt;TIM2_CH1&lt;/div&gt;" style="edgeLabel;html=1;align=center;verticalAlign=middle;resizable=0;points=[];fontSize=12;fontFamily=JetBrains Mono;fontSource=https%3A%2F%2Ffonts.googleapis.com%2Fcss%3Ffamily%3DJetBrains%2BMono;labelBackgroundColor=#FFAB2E;labelBorderColor=#FFAB2E;" parent="3psXlnNpl7eC7Tku3Xl5-28" vertex="1" connectable="0">
          <mxGeometry x="-0.0235" y="2" relative="1" as="geometry">
            <mxPoint x="-7" y="2" as="offset" />
          </mxGeometry>
        </mxCell>
        <mxCell id="3psXlnNpl7eC7Tku3Xl5-30" value="BMP390/BMP581 Barometric Pressure Sensor" style="rounded=0;whiteSpace=wrap;html=1;fontSize=12;fontFamily=JetBrains Mono;fontSource=https%3A%2F%2Ffonts.googleapis.com%2Fcss%3Ffamily%3DJetBrains%2BMono;fillColor=#eeeeee;strokeColor=#36393d;" parent="1" vertex="1">
          <mxGeometry x="360" y="180" width="120" height="60" as="geometry" />
        </mxCell>
        <mxCell id="3psXlnNpl7eC7Tku3Xl5-31" style="edgeStyle=orthogonalEdgeStyle;rounded=1;orthogonalLoop=1;jettySize=auto;html=1;entryX=0.75;entryY=1;entryDx=0;entryDy=0;strokeWidth=2;strokeColor=#FFAB2E;startArrow=classic;startFill=1;endArrow=none;endFill=0;curved=0;exitX=0.5;exitY=0;exitDx=0;exitDy=0;" parent="1" source="3psXlnNpl7eC7Tku3Xl5-33" target="3psXlnNpl7eC7Tku3Xl5-17" edge="1">
          <mxGeometry relative="1" as="geometry">
            <mxPoint x="690" y="646" as="targetPoint" />
            <mxPoint x="770" y="580" as="sourcePoint" />
            <Array as="points">
              <mxPoint x="780" y="580" />
              <mxPoint x="640" y="580" />
            </Array>
          </mxGeometry>
        </mxCell>
        <mxCell id="3psXlnNpl7eC7Tku3Xl5-32" value="TIM1_CH1" style="edgeLabel;html=1;align=center;verticalAlign=middle;resizable=0;points=[];labelBackgroundColor=#FFAB2E;labelBorderColor=#FFAB2E;fontFamily=JetBrains Mono;fontSource=https%3A%2F%2Ffonts.googleapis.com%2Fcss%3Ffamily%3DJetBrains%2BMono;fontSize=12;" parent="3psXlnNpl7eC7Tku3Xl5-31" vertex="1" connectable="0">
          <mxGeometry x="-0.4427" relative="1" as="geometry">
            <mxPoint x="-60" as="offset" />
          </mxGeometry>
        </mxCell>
        <mxCell id="3psXlnNpl7eC7Tku3Xl5-33" value="&lt;div&gt;WS2812B&lt;/div&gt;&lt;div&gt;PWM RGB LED&lt;/div&gt;" style="rounded=0;whiteSpace=wrap;html=1;fontSize=12;fontFamily=JetBrains Mono;fontSource=https%3A%2F%2Ffonts.googleapis.com%2Fcss%3Ffamily%3DJetBrains%2BMono;" parent="1" vertex="1">
          <mxGeometry x="720" y="640" width="120" height="60" as="geometry" />
        </mxCell>
        <mxCell id="2O-WXTWpkQr1niNHSLxZ-1" style="edgeStyle=orthogonalEdgeStyle;rounded=1;orthogonalLoop=1;jettySize=auto;html=1;exitX=0.5;exitY=1;exitDx=0;exitDy=0;entryX=0.75;entryY=0;entryDx=0;entryDy=0;startArrow=classic;startFill=1;strokeWidth=2;fontSize=12;fontFamily=JetBrains Mono;fontSource=https%3A%2F%2Ffonts.googleapis.com%2Fcss%3Ffamily%3DJetBrains%2BMono;strokeColor=#FFAB2E;fillColor=#ffcc99;curved=0;" parent="1" source="2O-WXTWpkQr1niNHSLxZ-3" target="3psXlnNpl7eC7Tku3Xl5-17" edge="1">
          <mxGeometry relative="1" as="geometry">
            <mxPoint x="750" y="270" as="targetPoint" />
          </mxGeometry>
        </mxCell>
        <mxCell id="2O-WXTWpkQr1niNHSLxZ-2" value="&lt;div&gt;SPI3&lt;/div&gt;" style="edgeLabel;html=1;align=center;verticalAlign=middle;resizable=0;points=[];fontSize=12;fontFamily=JetBrains Mono;fontSource=https%3A%2F%2Ffonts.googleapis.com%2Fcss%3Ffamily%3DJetBrains%2BMono;labelBackgroundColor=#FFAB2E;labelBorderColor=#FFAB2E;" parent="2O-WXTWpkQr1niNHSLxZ-1" vertex="1" connectable="0">
          <mxGeometry x="-0.0235" y="2" relative="1" as="geometry">
            <mxPoint x="7" y="-2" as="offset" />
          </mxGeometry>
        </mxCell>
        <mxCell id="2O-WXTWpkQr1niNHSLxZ-3" value="&lt;div&gt;SPI Interface&lt;/div&gt;&lt;div&gt;CPOL = 0&lt;/div&gt;&lt;div&gt;CPHA = 0&lt;/div&gt;" style="rounded=0;whiteSpace=wrap;html=1;fontSize=12;fontFamily=JetBrains Mono;fontSource=https%3A%2F%2Ffonts.googleapis.com%2Fcss%3Ffamily%3DJetBrains%2BMono;fillColor=#ffcccc;strokeColor=#36393d;" parent="1" vertex="1">
          <mxGeometry x="720" y="180" width="120" height="60" as="geometry" />
        </mxCell>
      </root>
    </mxGraphModel>
  </diagram>
</mxfile>
